# xmcd
#
# Track frame offsets: 
#        150
#        13265
#        28450
#        47700
#        62382
#        76987
#        96192
#        111920
#        126110
#        140837
#
# Disc length: 2170 seconds
#
# Revision: 12
# Processed by: cddbd v1.5.2PL0 Copyright (c) Steve Scherf et al.
# Submitted via: ExactAudioCopy v1.3
#
DISCID=8b08780a
DTITLE=George Strait - Blue Clear Sky
DYEAR=1996
DGENRE=Country
TTITLE0=Blue Clear Sky
TTITLE1=Carried Away
TTITLE2=Rockin' In The Arms Of Your Memory
TTITLE3=She Knows When You're On My Mind
TTITLE4=I Ain't Never Seen No One Like You
TTITLE5=I Can Still Make Cheyenne
TTITLE6=King Of The Mountain
TTITLE7=Do The Right Thing
TTITLE8=I'd Just As Soon Go
TTITLE9=Need I Say More
EXTD=
EXTT0=
EXTT1=
EXTT2=
EXTT3=
EXTT4=
EXTT5=
EXTT6=
EXTT7=
EXTT8=
EXTT9=
PLAYORDER=
